Patient4_TMGait_0pt4_02_left_08_EMG.mot
version=1
nRows=19
nColumns=33
inDegrees=no
endheader
time	1LAddLong	2LGlutMax	3LGlutMed	4LIliopsoas	5LSemiMemb	6LBicFemLong	7LRecFem	8LVastMed	9LVastLat	10LGasMed	11LTibAnt	12lTibPost	13LPeroneusLong	14LSol	15LExtDigLong	16LFlexDigLong	17RAddLong	18RGlutMax	19RGlutMed	20RIliopsoas	21RSemiMemb	22RBicFemLong	23RRecFem	24RVastMed	25RVastLat	26RGasMed	27RTibAnt	28RTibPost	29RPeroneusLong	30RSol	31RExtDigLong	32RFlexDigLong
12.133	0.005951	0.049744	-0.1944	0.008392	0.032043	0.036163	-0.066681	0.010986	0.10101	-0.02243	0.00824	0.001678	-0.015106	-0.012054	0.02182	0.014038	0.017853	-0.63492	0.9343	-0.079193	0.005798	0.02533	-0.13886	-0.086365	0.3923	0.003204	-0.057526	-0.003052	-0.048065	-0.072327	0.004425	-0.007172
12.134	0.002136	0.059052	-0.22293	0.02594	-0.007935	0.045929	-0.05722	0.010681	0.094604	-0.0177	0.019379	-0.000153	-0.021515	-0.046997	0.025177	0.009613	0.017853	-0.55801	0.60516	0.01709	-0.000305	0.025482	0.093079	-0.084686	0.23712	-0.002441	0.18204	-0.010529	-0.36011	0.054779	0.005188	-0.007935
12.135	0.002899	0.068054	-0.1149	-0.001831	0.003052	0.077972	-0.054321	0.009766	0.1001	-0.025635	0.023956	0.002747	-0.001221	-0.15015	0.028229	0.017548	0.02182	-0.48706	0.41992	0.08667	-0.012207	0.017853	0.28275	-0.068207	0.11002	-0.011597	0.17334	-0.007172	-0.092621	0.046997	0.004883	-0.013428
12.136	0.003204	0.042267	0.031586	-0.006409	0.009613	0.077057	-0.075836	0.012207	0.10147	-0.019989	0.05722	0.007935	-0.010376	-0.032959	0.024567	0.011597	0.005798	-0.45044	0.1474	0.14313	-0.017853	0.056152	0.097656	-0.078125	0.003815	-0.003052	-0.097198	-0.002289	-0.62302	-0.065155	0.002594	-0.023193
12.137	-0.005798	-0.019836	0.18753	0.013733	-0.002289	0.11429	-0.073242	0.01236	0.088196	-0.02182	0.055542	-0.000458	-0.022125	-0.001373	0.027313	0.014648	-0.023804	-0.54916	0.22675	0.003967	0.002747	0.068054	-0.11261	-0.005341	-0.30304	-0.007019	-0.38238	-0.00351	-0.21561	-0.013733	0	-0.009155
12.138	-0.005646	-0.032654	0.18143	0.012207	-0.071259	0.10696	-0.067444	0.009308	0.080566	-0.017853	0.063324	-0.000305	-0.005035	-0.024719	0.01236	0.005493	0.00946	-0.5574	0.074005	-0.071716	-0.004272	0.054474	0.083008	-0.045319	-0.69244	-0.007935	-0.51788	-0.003662	-0.052338	0.057373	0.004272	-0.016785
12.139	-0.005646	-0.077972	0.10117	0.001831	-0.089264	0.056152	-0.06424	0.003815	0.081482	-0.031433	-0.027771	-0.007477	-0.00885	0.038605	0.00946	0.014648	0.002594	-0.51849	-0.004883	-0.00061	0.00946	0.068665	0.020752	-0.080414	-0.78934	-0.016937	-0.51224	-0.003357	0.090027	0.029449	0.003815	-0.013428
12.14	0.007172	-0.046082	0.07782	0.011292	-0.087585	-0.024261	-0.091858	0	0.089874	-0.028839	-0.017548	-0.005188	-0.019073	0.10147	0.009155	0.013733	-0.00351	-0.50522	-0.31937	-0.020905	-0.064087	0.051422	-0.20798	-0.055389	-0.23163	-0.002899	-0.33249	-0.004425	0.21927	-0.081787	0.005188	-0.010681
12.141	0.011444	-0.055237	-0.005951	-0.001831	-0.002289	-0.087738	-0.056915	0.004272	0.096588	-0.072937	-0.037231	-0.000916	-0.032043	0.14755	0.002289	0.012054	0.003815	-0.49301	-0.84457	0.014801	-0.085602	0.032806	-0.27618	-0.013428	0.079956	0.009003	0.24078	-0.001831	-0.003662	-0.18539	0.014343	-0.002747
12.142	0.01297	-0.050507	-0.016327	-0.005493	0.070496	-0.006561	-0.071106	0.006866	0.085144	-0.073853	-0.041351	-0.003815	-0.005646	0.103	0.004578	0.017853	0.018921	-0.40512	-0.77347	0.036011	-0.016022	0.000916	-0.014801	0.043793	0.11353	0.000916	0.72739	-0.00412	0.031433	-0.1683	0.003204	-0.011292
12.143	0.010986	-0.074768	-0.007324	-0.010071	0.038452	0.034943	-0.044861	0.000916	0.1001	-0.016785	-0.024567	-0.002747	-0.029144	0.039215	0.001373	0.023804	0.030823	-0.45792	-0.096283	-0.005188	0.044556	-0.031586	0.26077	0.11429	0.060577	-0.001678	0.70358	-0.004272	0.048065	-0.097351	0.003967	-0.008698
12.144	0.005188	-0.025635	0.000153	-0.008545	0.021515	0.04303	-0.044708	0.001984	0.1091	0.012817	-0.009766	-0.00351	-0.030212	-0.12207	-0.002594	0.014648	0.019226	-0.34759	-0.052032	-0.027313	0.057983	-0.018768	0.064392	0.036011	0.005493	0.000763	0.3775	-0.006256	0.046082	-0.10162	0.002441	-0.001221
12.145	-0.001678	-0.005951	-0.02121	0.027466	0.000153	0.013275	-0.047455	0.008087	0.10742	0.027008	-0.014343	0.00473	-0.037689	-0.18249	0.007019	0.008087	0.031738	-0.22888	0.59235	-0.020142	0.10727	-0.028839	-0.013428	0.015869	-0.010376	0.000763	0.19318	-0.005646	-0.018616	-0.15213	0.00473	-0.002441
12.146	0.003052	-0.036621	-0.046387	0.043335	-0.024567	0.002747	-0.045319	0.00351	0.098724	0.002289	-0.001678	0.001831	-0.033875	-0.30228	0.016937	0.006714	0.028687	-0.21454	0.19379	-0.021667	0.066071	-0.035248	0.032501	0.003662	-0.004578	-0.011444	0.16403	-0.002747	-0.023651	-0.066223	0.002289	-0.00412
12.147	0.002594	-0.063934	-0.028839	0.014038	-0.013428	0	-0.058594	0.00351	0.07782	-0.021362	0.009308	0.002289	-0.055389	-0.35843	0.013733	0.008087	0.009308	-0.21683	0.17395	0.019684	-0.06546	-0.021973	0.068512	0.00824	0.007324	-0.009766	0.052032	-0.009918	-0.21515	0.034637	0.004425	-0.00946
12.148	0.000305	-0.074005	-0.018768	0.006866	-0.028381	0.012512	-0.054474	0.002899	0.069275	-0.071106	0.002289	0.001526	-0.052948	-0.1973	0.00885	0.003357	0.009613	-0.14938	0.3096	0.007172	-0.12192	0.029907	0.011444	0.02182	0.040741	-0.008392	0.33966	-0.004272	-0.8017	0.069275	0.002594	-0.001068
12.149	0.006714	-0.016022	-0.046997	0.010376	-0.047455	-0.00473	-0.071716	0.003967	0.067902	-0.084229	0.007019	0.011749	-0.046387	-0.11856	0.001526	0.017242	-0.010376	-0.12421	0.062103	0.030212	-0.066376	0.045166	0.015869	0.083466	0.058899	-0.009766	0.30563	-0.004578	-0.44174	0.050964	0.005188	-0.010071
12.15	0.012817	-0.05661	-0.065613	-0.00824	0.007935	-0.018005	-0.065155	0	0.063171	-0.081482	0.008087	-0.002594	-0.065613	-0.02182	-0.005493	0.012512	-0.015869	-0.1181	0.32257	-0.022736	0.077515	0.053864	0.018005	0.10056	0.044861	-0.000458	0.043945	-0.003662	0.56366	0.077209	0.002136	0.000458
12.151	0.013428	-0.062714	-0.094452	-0.001373	0.023651	0.009003	-0.070648	-0.00412	0.058899	-0.053253	0.005035	0.00824	-0.053406	0.17227	-0.000153	0.018005	-0.034332	-0.074158	-0.30777	-0.092773	0.20233	0.021057	0.016174	0.10437	0.012054	0.000763	0.052032	-0.004425	0.38727	0.14648	0.00473	-0.005493
